<?xml version="1.0" encoding="UTF-8" standalone="no"?>
<!-- Created with Inkscape (http://www.inkscape.org/) -->

<svg
   width="24.068359mm"
   height="10.490378mm"
   viewBox="0 0 24.068359 10.490378"
   version="1.1"
   id="svg5"
   inkscape:version="1.1.1 (3bf5ae0d25, 2021-09-20)"
   sodipodi:docname="logo-color.svg"
   xmlns:inkscape="http://www.inkscape.org/namespaces/inkscape"
   xmlns:sodipodi="http://sodipodi.sourceforge.net/DTD/sodipodi-0.dtd"
   xmlns="http://www.w3.org/2000/svg"
   xmlns:svg="http://www.w3.org/2000/svg">
  <sodipodi:namedview
     id="namedview7"
     pagecolor="#ededed"
     bordercolor="#dcdcdc"
     borderopacity="1"
     inkscape:pageshadow="0"
     inkscape:pageopacity="0"
     inkscape:pagecheckerboard="false"
     inkscape:document-units="mm"
     showgrid="false"
     fit-margin-top="0"
     fit-margin-left="0"
     fit-margin-right="0"
     fit-margin-bottom="0"
     inkscape:zoom="11.313709"
     inkscape:cx="39.553785"
     inkscape:cy="22.848388"
     inkscape:window-width="2560"
     inkscape:window-height="1377"
     inkscape:window-x="1912"
     inkscape:window-y="337"
     inkscape:window-maximized="1"
     inkscape:current-layer="g62789" />
  <defs
     id="defs2" />
  <g
     inkscape:label="Layer 1"
     inkscape:groupmode="layer"
     id="layer1"
     transform="translate(-4.810195,-5.382982)">
    <g
       id="g62789"
       transform="translate(-21.078284,-45.530183)">
      <g
         id="path26270"
         transform="matrix(1.3926361,0,0,1.3926361,-12.19013,-13.243643)"
         style="font-size:4.31842px;line-height:1.25;fill:#34495e;stroke:#ffffff;stroke-width:1;stroke-linecap:round;stroke-linejoin:round;paint-order:stroke fill markers">
        <path
           style="color:#000000;-inkscape-font-specification:'Trebuchet MS, Normal';fill:#ffffff;stroke:none;stroke-linecap:butt;stroke-linejoin:miter;-inkscape-stroke:none"
           d="m 40.272159,48.351562 a 0.50005,0.50005 0 0 0 -0.5,0.5 v 1.482422 c 0,0.3448 0.09379,0.690822 0.328125,0.945313 a 0.50005,0.50005 0 0 0 0.002,0.002 c 0.238164,0.255901 0.59054,0.371094 0.933593,0.371094 0.197424,0 0.384771,-0.06623 0.560547,-0.150391 a 0.50005,0.50005 0 0 0 0.109375,0.109375 h 0.400391 a 0.50005,0.50005 0 0 0 0.5,-0.5 v -2.259766 a 0.50005,0.50005 0 0 0 -0.5,-0.5 h -0.400391 a 0.50005,0.50005 0 0 0 -0.5,0.5 v 1.4375 c -0.0029,0.0021 0.0016,-4.9e-4 -0.002,0.002 -0.01363,0.0094 -0.024,0.0061 -0.0332,0.0098 -5.67e-4,-0.0096 0.002,0.0047 0.002,-0.0078 v -1.441407 a 0.50005,0.50005 0 0 0 -0.5,-0.5 z"
           id="path26307" />
      </g>
      <g
         id="path26262"
         transform="matrix(1.3926361,0,0,1.3926361,-13.627206,-13.243643)"
         style="font-size:4.31842px;line-height:1.25;fill:#34495e;stroke:#ffffff;stroke-width:1;stroke-linecap:round;stroke-linejoin:round;paint-order:stroke fill markers">
        <path
           style="color:#000000;-inkscape-font-specification:'Trebuchet MS, Normal';fill:#ffffff;stroke:none;stroke-linecap:butt;stroke-linejoin:miter;-inkscape-stroke:none"
           d="m 31.730469,48.351562 a 0.50005,0.50005 0 0 0 -0.5,0.5 v 1.482422 c 0,0.3448 0.09379,0.690822 0.328125,0.945313 a 0.50005,0.50005 0 0 0 0.002,0.002 c 0.238165,0.2559 0.592494,0.371094 0.935547,0.371094 0.196782,0 0.38328,-0.06672 0.558593,-0.150391 a 0.50005,0.50005 0 0 0 0.109375,0.109375 h 0.402344 a 0.50005,0.50005 0 0 0 0.5,-0.5 v -2.259766 a 0.50005,0.50005 0 0 0 -0.5,-0.5 h -0.402344 a 0.50005,0.50005 0 0 0 -0.5,0.5 v 1.439454 c -0.0146,0.01011 -0.02533,0.0081 -0.03516,0.01172 -8.2e-4,-0.01107 0.002,0.0058 0.002,-0.0098 v -1.441407 a 0.50005,0.50005 0 0 0 -0.5,-0.5 z"
           id="path26283" />
      </g>
      <g
         id="g41758"
         transform="matrix(1.3926361,0,0,1.3926361,-14.095423,2.5466782)"
         style="font-size:4.31842px;line-height:1.25;fill:#34495e;stroke:#ffffff;stroke-width:1;stroke-linecap:round;stroke-linejoin:round;paint-order:stroke fill markers">
        <g
           id="path26260"
           transform="translate(-0.08181739,-11.338439)">
          <path
             style="color:#000000;-inkscape-font-specification:'Trebuchet MS, Normal';fill:#2980b9;fill-opacity:1;stroke:none;stroke-linecap:butt;stroke-linejoin:miter;-inkscape-stroke:none"
             d="m 30.730469,47.521484 c -0.276131,2.8e-5 -0.499972,0.223869 -0.5,0.5 v 1.953125 c -0.0983,0 -0.202878,0.01758 -0.347655,0.01758 h -0.36914 c -0.289634,-6.08e-4 -0.519204,0.244207 -0.5,0.533204 0.0189,0.300255 0.145012,0.605102 0.36914,0.814453 6.65e-4,6.69e-4 0.0013,0.0013 0.002,0.002 0.224169,0.207113 0.533896,0.310547 0.833984,0.310547 0.438003,0 0.876915,-0.133506 1.132812,-0.484375 10e-7,-6.67e-4 10e-7,-0.0013 0,-0.002 0.240281,-0.331935 0.298829,-0.733376 0.298829,-1.208985 v -1.935547 c -2.8e-5,-0.276131 -0.223869,-0.499972 -0.5,-0.5 z"
             id="path26277"
             sodipodi:nodetypes="ccccccccsccsccc" />
        </g>
      </g>
      <g
         id="path26264"
         transform="matrix(1.3926361,0,0,1.3926361,-13.627206,-13.243643)"
         style="font-size:4.31842px;line-height:1.25;fill:#34495e;stroke:#ffffff;stroke-width:1;stroke-linecap:round;stroke-linejoin:round;paint-order:stroke fill markers">
        <path
           style="color:#000000;-inkscape-font-specification:'Trebuchet MS, Normal';fill:#ffffff;stroke:none;stroke-linecap:butt;stroke-linejoin:miter;-inkscape-stroke:none"
           d="m 34.710937,48.310547 c -0.297458,0 -0.59598,0.0763 -0.833984,0.259765 -0.248803,0.191786 -0.398437,0.52331 -0.398437,0.830079 0,0.123983 0.02003,0.251658 0.0625,0.371093 a 0.50005,0.50005 0 0 0 0.0059,0.01172 c 0.04474,0.115785 0.10871,0.221316 0.185547,0.314453 a 0.50005,0.50005 0 0 0 0.0098,0.01172 c 0.0335,0.03843 0.07572,0.06723 0.113282,0.101562 a 0.50005,0.50005 0 0 0 -0.21875,0.210938 l -0.140625,0.378906 a 0.50005,0.50005 0 0 0 0.222656,0.611328 c 0.279902,0.157797 0.595613,0.240235 0.916016,0.240235 0.327045,0 0.647899,-0.07524 0.902343,-0.279297 a 0.50005,0.50005 0 0 0 0.0039,-0.002 c 0.253168,-0.205542 0.396484,-0.545911 0.396484,-0.865235 0,-0.240994 -0.06951,-0.494721 -0.224609,-0.693359 -0.05197,-0.06656 -0.134997,-0.09392 -0.197266,-0.146484 a 0.50005,0.50005 0 0 0 0.181641,-0.181641 l 0.113281,-0.371094 A 0.50005,0.50005 0 0 0 35.52546,48.503861 C 35.239382,48.38493 34.980891,48.310502 34.711006,48.310502 Z"
           id="path26289" />
      </g>
      <g
         id="path26266"
         transform="matrix(1.3926361,0,0,1.3926361,-13.627206,-13.243643)"
         style="font-size:4.31842px;line-height:1.25;fill:#34495e;stroke:#ffffff;stroke-width:1;stroke-linecap:round;stroke-linejoin:round;paint-order:stroke fill markers">
        <path
           style="color:#000000;-inkscape-font-specification:'Trebuchet MS, Normal';fill:#ffffff;stroke:none;stroke-linecap:butt;stroke-linejoin:miter;-inkscape-stroke:none"
           d="m 36.224609,47.759766 -0.40039,0.154296 a 0.50005,0.50005 0 0 0 -0.320313,0.466797 v 0.208985 a 0.50005,0.50005 0 0 0 -0.261719,0.261718 v 0.316407 a 0.50005,0.50005 0 0 0 0.261719,0.261718 v 1.021485 c 0,0.30312 0.107173,0.615457 0.314453,0.841797 a 0.50005,0.50005 0 0 0 0.0039,0.0039 c 0.205718,0.219745 0.516471,0.355469 0.818359,0.355469 0.23367,0 0.455999,-0.02423 0.667969,-0.07813 a 0.50005,0.50005 0 0 0 0.371093,-0.566407 l -0.05859,-0.353515 a 0.50005,0.50005 0 0 0 -0.708985,-0.369141 c -0.0041,0.0019 -0.004,2.51e-4 -0.0078,0.002 v -0.61914 h 0.11914 a 0.50005,0.50005 0 0 0 0.5,-0.5 v -0.316407 a 0.50005,0.50005 0 0 0 -0.5,-0.5 h -0.11914 v -0.125 a 0.50005,0.50005 0 0 0 -0.679688,-0.466796 z"
           id="path26295" />
      </g>
      <g
         id="path26268"
         transform="matrix(1.3926361,0,0,1.3926361,-13.004338,-13.243643)"
         style="font-size:4.31842px;line-height:1.25;fill:#e74c3c;fill-opacity:1;stroke:#ffffff;stroke-width:1;stroke-linecap:round;stroke-linejoin:round;paint-order:stroke fill markers">
        <path
           style="color:#000000;-inkscape-font-specification:'Trebuchet MS, Normal';fill:#e74c3c;fill-opacity:1;stroke:none;stroke-linecap:butt;stroke-linejoin:miter;-inkscape-stroke:none"
           d="m 38.924502,47.46875 c -0.521829,0 -1.018825,0.237144 -1.347656,0.642578 -0.325045,0.400766 -0.484375,0.914332 -0.484375,1.464844 0,0.557664 0.142161,1.067872 0.457031,1.46289 0.32002,0.401481 0.822049,0.625 1.345703,0.625 0.490403,0 0.959221,-0.174052 1.296875,-0.509765 a 0.50005,0.50005 0 0 0 0.05273,-0.646485 l -0.232417,-0.324218 a 0.50005,0.50005 0 0 0 -0.802734,-0.0098 c -0.06584,0.08661 -0.100027,0.109375 -0.271485,0.109375 -0.128224,0 -0.164199,-0.01732 -0.253906,-0.132812 -7.9e-5,-1.04e-4 -0.0019,1.04e-4 -0.002,0 -0.08805,-0.116717 -0.146485,-0.278763 -0.146485,-0.548829 0,-0.293633 0.06243,-0.483173 0.154297,-0.615234 0.08989,-0.127532 0.116184,-0.138672 0.244141,-0.138672 0.232946,0 0.344414,0.05464 0.341797,0.05273 a 0.50005,0.50005 0 0 0 0.761719,-0.222657 L 40.178362,48.31832 A 0.50005,0.50005 0 0 0 39.965518,47.703125 C 39.664734,47.527111 39.315563,47.46875 38.924502,47.46875 Z"
           id="path26301" />
      </g>
      <g
         id="path26272"
         transform="matrix(1.3926361,0,0,1.3926361,-11.884849,2.5466782)"
         style="font-size:4.31842px;line-height:1.25;fill:#34495e;stroke:#ffffff;stroke-width:1;stroke-linecap:round;stroke-linejoin:round;paint-order:stroke fill markers">
        <path
           style="color:#000000;-inkscape-font-specification:'Trebuchet MS, Normal';fill:#ffffff;stroke:none;stroke-linecap:butt;stroke-linejoin:miter;-inkscape-stroke:none"
           d="m 42.797089,36.421327 -0.40039,0.154296 a 0.50005,0.50005 0 0 0 -0.320313,0.466797 v 0.208985 a 0.50005,0.50005 0 0 0 -0.261719,0.261718 v 0.316407 a 0.50005,0.50005 0 0 0 0.261719,0.261718 v 1.021485 c 0,0.30312 0.107172,0.615457 0.314453,0.841797 a 0.50005,0.50005 0 0 0 0.0039,0.0039 c 0.205718,0.219745 0.516472,0.355469 0.81836,0.355469 0.23367,0 0.457952,-0.02423 0.669922,-0.07813 a 0.50005,0.50005 0 0 0 0.36914,-0.566407 l -0.05859,-0.353515 a 0.50005,0.50005 0 0 0 -0.707032,-0.369141 c -0.005,0.0024 -0.0052,-5e-5 -0.0098,0.002 v -0.61914 h 0.11914 a 0.50005,0.50005 0 0 0 0.5,-0.5 v -0.316407 a 0.50005,0.50005 0 0 0 -0.5,-0.5 h -0.11914 v -0.125 a 0.50005,0.50005 0 0 0 -0.679688,-0.466796 z"
           id="path26313" />
      </g>
      <path
         d="m 26.912754,57.083919 h 0.513891 q 0.07048,0.390556 0.466907,0.390556 0.393492,0 0.552064,-0.167381 0.161508,-0.170318 0.161508,-0.945559 v -2.719216 h 0.587304 v 2.695723 q 0,0.880955 -0.284842,1.274449 -0.284842,0.390558 -1.013099,0.390558 -0.419921,0 -0.690081,-0.249605 -0.267224,-0.249604 -0.293652,-0.669525 z"
         style="font-size:4.31842px;line-height:1.25;font-family:'Trebuchet MS';-inkscape-font-specification:'Trebuchet MS, Normal';fill:#ffffff;fill-opacity:1;stroke-width:1.39264;stroke-linecap:round;stroke-linejoin:round;paint-order:stroke fill markers"
         id="path41507" />
      <path
         d="m 31.134962,54.799307 v 2.005642 q 0,0.728256 0.631352,0.728256 0.276033,0 0.505081,-0.158572 0.229049,-0.158571 0.302461,-0.367064 v -2.208262 h 0.557939 v 3.14501 h -0.557939 v -0.434604 q -0.09396,0.185 -0.378811,0.340636 -0.281905,0.1527 -0.552064,0.1527 -0.516827,0 -0.79286,-0.296589 -0.273096,-0.296588 -0.273096,-0.842781 v -2.064372 z"
         style="font-size:4.31842px;line-height:1.25;font-family:'Trebuchet MS';-inkscape-font-specification:'Trebuchet MS, Normal';fill:#34495e;stroke-width:1.39264;stroke-linecap:round;stroke-linejoin:round;paint-order:stroke fill markers"
         id="path41509" />
      <path
         d="m 33.686797,57.756381 0.196746,-0.528574 q 0.466906,0.305398 0.751749,0.305398 0.516827,0 0.516827,-0.434604 0,-0.311271 -0.499209,-0.534446 -0.384683,-0.176191 -0.519762,-0.267223 -0.132147,-0.09104 -0.231985,-0.205556 -0.0969,-0.117455 -0.146826,-0.246668 -0.04699,-0.132147 -0.04699,-0.281906 0,-0.387621 0.281906,-0.604922 0.281906,-0.217303 0.737067,-0.217303 0.343571,0 0.866272,0.217303 l -0.158572,0.516827 q -0.331826,-0.264286 -0.66659,-0.264286 -0.199683,0 -0.337699,0.09398 -0.135085,0.09398 -0.135085,0.237858 0,0.302461 0.343571,0.458096 l 0.399368,0.182064 q 0.367064,0.167382 0.534445,0.381748 0.167382,0.214365 0.167382,0.537382 0,0.422858 -0.296588,0.663654 -0.296588,0.237858 -0.822225,0.237858 -0.496271,0 -0.933813,-0.246668 z"
         style="font-size:4.31842px;line-height:1.25;font-family:'Trebuchet MS';-inkscape-font-specification:'Trebuchet MS, Normal';fill:#34495e;stroke-width:1.39264;stroke-linecap:round;stroke-linejoin:round;paint-order:stroke fill markers"
         id="path41511" />
      <path
         d="m 36.52641,55.239786 h -0.364129 v -0.440479 h 0.364129 v -0.657779 l 0.557937,-0.214366 v 0.872145 h 0.863337 v 0.440479 h -0.863337 v 1.562227 q 0,0.396429 0.132147,0.563811 0.135072,0.167381 0.431667,0.167381 0.214366,0 0.443414,-0.108653 l 0.08222,0.490397 q -0.346509,0.0881 -0.760558,0.0881 -0.372938,0 -0.631352,-0.276033 -0.255476,-0.27897 -0.255476,-0.701827 z"
         style="font-size:4.31842px;line-height:1.25;font-family:'Trebuchet MS';-inkscape-font-specification:'Trebuchet MS, Normal';fill:#34495e;stroke-width:1.39264;stroke-linecap:round;stroke-linejoin:round;paint-order:stroke fill markers"
         id="path41513" />
      <path
         d="m 42.315077,53.800892 -0.196747,0.502144 q -0.281905,-0.205556 -0.886828,-0.205556 -0.566747,0 -0.91032,0.487462 -0.340636,0.487461 -0.340636,1.256829 0,0.734129 0.349445,1.192226 0.352382,0.455161 0.907384,0.455161 0.604923,0 0.930877,-0.428732 l 0.323016,0.449287 q -0.510954,0.508018 -1.315559,0.508018 -0.84278,0 -1.327306,-0.607859 -0.484526,-0.607859 -0.484526,-1.603339 0,-0.963178 0.516828,-1.600402 0.516827,-0.637225 1.336114,-0.637225 0.701828,0 1.098258,0.231986 z"
         style="font-size:4.31842px;line-height:1.25;font-family:'Trebuchet MS';-inkscape-font-specification:'Trebuchet MS, Normal';fill:#ffffff;fill-opacity:1;stroke-width:1.39264;stroke-linecap:round;stroke-linejoin:round;paint-order:stroke fill markers"
         id="path41515" />
      <path
         d="m 44.465401,54.799307 v 2.005642 q 0,0.728256 0.63135,0.728256 0.276033,0 0.505081,-0.158572 0.229049,-0.158571 0.302461,-0.367064 v -2.208262 h 0.557939 v 3.14501 h -0.557939 v -0.434604 q -0.09398,0.185 -0.378811,0.340636 -0.281905,0.1527 -0.552064,0.1527 -0.516827,0 -0.79286,-0.296589 -0.273096,-0.296588 -0.273096,-0.842781 v -2.064372 z"
         style="font-size:4.31842px;line-height:1.25;font-family:'Trebuchet MS';-inkscape-font-specification:'Trebuchet MS, Normal';fill:#34495e;stroke-width:1.39264;stroke-linecap:round;stroke-linejoin:round;paint-order:stroke fill markers"
         id="path41517" />
      <path
         d="m 47.422474,55.239786 h -0.364128 v -0.440479 h 0.364128 v -0.657779 l 0.557938,-0.214366 v 0.872145 h 0.863337 v 0.440479 h -0.863337 v 1.562227 q 0,0.396429 0.132147,0.563811 0.135086,0.167381 0.431668,0.167381 0.214366,0 0.443414,-0.108653 l 0.08222,0.490397 q -0.346508,0.0881 -0.760557,0.0881 -0.372938,0 -0.631352,-0.276033 -0.255476,-0.27897 -0.255476,-0.701827 z"
         style="font-size:4.31842px;line-height:1.25;font-family:'Trebuchet MS';-inkscape-font-specification:'Trebuchet MS, Normal';fill:#34495e;stroke-width:1.39264;stroke-linecap:round;stroke-linejoin:round;paint-order:stroke fill markers"
         id="path41519" />
    </g>
  </g>
</svg>
